<svg width="48" height="48" viewBox="0 0 48 48" fill="none" xmlns="http://www.w3.org/2000/svg">
<path fill-rule="evenodd" clip-rule="evenodd" d="M24.279 2L5.779 12.68L6.778 14.413L23.278 4.886V22.938H7.328L11.485 18.781L10.072 17.367L3 24.437L10.072 31.507L11.485 30.094L6.328 24.937H23.278V42.992L6.778 33.466L5.779 35.198L24.279 45.879L42.778 35.198L41.779 33.466L25.279 42.992V24.937H41.999L37.402 29.536L38.816 30.949L45.886 23.879L38.816 16.808L37.402 18.222L42.116 22.938H25.279V4.886L41.779 14.413L42.778 12.68L24.279 2Z" fill="#4D27AA"/>
</svg>
