<?xml version="1.0" encoding="UTF-8"?>
<svg xmlns="http://www.w3.org/2000/svg" xmlns:xlink="http://www.w3.org/1999/xlink" width="16px" height="16px" viewBox="0 0 16 16" version="1.1">
<g id="surface1">
<path style=" stroke:none;fill-rule:evenodd;fill:rgb(30.196078%,15.294118%,66.666667%);fill-opacity:1;" d="M 8 8.480469 C 8.21875 8.480469 8.394531 8.65625 8.394531 8.875 C 8.394531 9.09375 8.21875 9.269531 8 9.269531 C 7.78125 9.269531 7.605469 9.09375 7.605469 8.875 C 7.605469 8.65625 7.78125 8.480469 8 8.480469 Z M 7.667969 9.878906 L 7.667969 10.898438 L 8.332031 10.898438 L 8.332031 9.878906 C 8.757812 9.738281 9.0625 9.34375 9.0625 8.875 C 9.0625 8.289062 8.585938 7.8125 8 7.8125 C 7.414062 7.8125 6.9375 8.289062 6.9375 8.875 C 6.9375 9.34375 7.246094 9.738281 7.667969 9.878906 Z M 8 14.667969 C 4.324219 14.667969 1.332031 11.675781 1.332031 8 C 1.332031 4.324219 4.324219 1.332031 8 1.332031 C 11.675781 1.332031 14.667969 4.324219 14.667969 8 C 14.667969 11.675781 11.675781 14.667969 8 14.667969 Z M 8 0.667969 C 3.957031 0.667969 0.667969 3.957031 0.667969 8 C 0.667969 12.042969 3.957031 15.332031 8 15.332031 C 12.042969 15.332031 15.335938 12.042969 15.335938 8 C 15.335938 3.957031 12.042969 0.667969 8 0.667969 Z M 10.875 11.457031 L 5.125 11.457031 L 5.125 7.167969 L 10.875 7.167969 Z M 6.585938 5.367188 C 6.585938 4.972656 6.734375 4.605469 7.007812 4.328125 C 7.273438 4.054688 7.628906 3.90625 8.003906 3.90625 L 8.007812 3.90625 C 8.382812 3.90625 8.734375 4.058594 9 4.335938 C 9.265625 4.617188 9.414062 4.988281 9.410156 5.382812 L 9.410156 6.5 L 6.578125 6.5 Z M 11.207031 6.503906 L 10.078125 6.503906 L 10.078125 5.382812 C 10.082031 4.816406 9.867188 4.28125 9.480469 3.875 C 9.089844 3.46875 8.566406 3.242188 8.007812 3.238281 L 8.003906 3.238281 C 7.445312 3.238281 6.925781 3.460938 6.53125 3.863281 C 6.136719 4.261719 5.921875 4.796875 5.917969 5.363281 L 5.914062 6.5 L 4.792969 6.5 C 4.707031 6.5 4.621094 6.535156 4.558594 6.597656 C 4.496094 6.660156 4.460938 6.746094 4.460938 6.832031 L 4.457031 11.789062 C 4.457031 11.972656 4.609375 12.125 4.792969 12.125 L 11.207031 12.125 C 11.390625 12.125 11.539062 11.976562 11.539062 11.792969 L 11.542969 6.835938 C 11.542969 6.746094 11.507812 6.664062 11.445312 6.601562 C 11.382812 6.539062 11.296875 6.503906 11.207031 6.503906 Z M 11.207031 6.503906 "/>
</g>
</svg>
