<?xml version="1.0" encoding="UTF-8"?>
<svg xmlns="http://www.w3.org/2000/svg" xmlns:xlink="http://www.w3.org/1999/xlink" width="16px" height="16px" viewBox="0 0 16 16" version="1.1">
<g id="surface1">
<path style=" stroke:none;fill-rule:evenodd;fill:rgb(30.196078%,15.294118%,66.666667%);fill-opacity:1;" d="M 14.53125 5.066406 C 14.53125 5.15625 14.496094 5.242188 14.433594 5.304688 L 12.980469 6.777344 L 12.503906 6.308594 L 13.378906 5.425781 L 2.492188 5.425781 L 3.375 6.296875 L 2.90625 6.773438 L 1.433594 5.316406 C 1.371094 5.253906 1.332031 5.171875 1.332031 5.082031 C 1.332031 4.992188 1.371094 4.90625 1.433594 4.84375 L 2.90625 3.390625 L 3.375 3.863281 L 2.464844 4.761719 L 13.394531 4.761719 L 12.476562 3.875 L 12.9375 3.394531 L 14.429688 4.832031 C 14.492188 4.894531 14.53125 4.980469 14.53125 5.066406 Z M 5.492188 4.195312 L 4.824219 4.195312 L 4.824219 4.066406 C 4.832031 2.191406 6.289062 0.667969 8.078125 0.667969 C 9.875 0.671875 11.324219 2.210938 11.316406 4.097656 L 11.316406 4.195312 L 10.648438 4.195312 L 10.648438 4.097656 C 10.65625 2.578125 9.503906 1.339844 8.085938 1.332031 C 6.65625 1.332031 5.496094 2.558594 5.492188 4.066406 Z M 7.601562 9.605469 C 7.722656 9.484375 7.882812 9.417969 8.054688 9.417969 C 8.226562 9.417969 8.390625 9.484375 8.511719 9.605469 C 8.632812 9.726562 8.699219 9.890625 8.699219 10.0625 C 8.699219 10.234375 8.632812 10.394531 8.511719 10.515625 C 8.386719 10.636719 8.226562 10.703125 8.054688 10.703125 C 7.699219 10.703125 7.410156 10.417969 7.410156 10.0625 C 7.410156 9.890625 7.480469 9.726562 7.601562 9.605469 Z M 7.722656 11.324219 L 7.722656 13.039062 L 8.386719 13.039062 L 8.386719 11.324219 C 8.609375 11.265625 8.816406 11.15625 8.980469 10.988281 C 9.230469 10.742188 9.367188 10.410156 9.367188 10.0625 C 9.367188 9.710938 9.230469 9.382812 8.984375 9.136719 C 8.734375 8.886719 8.40625 8.75 8.054688 8.75 C 7.703125 8.75 7.375 8.886719 7.128906 9.132812 C 6.882812 9.382812 6.746094 9.710938 6.746094 10.0625 C 6.746094 10.667969 7.160156 11.175781 7.722656 11.324219 Z M 12.386719 14.671875 L 3.71875 14.667969 L 3.722656 8.042969 L 12.390625 8.046875 Z M 12.722656 7.382812 L 11.316406 7.378906 L 11.316406 5.960938 L 10.648438 5.960938 L 10.648438 7.378906 L 5.492188 7.378906 L 5.492188 5.960938 L 4.824219 5.960938 L 4.824219 7.378906 L 3.390625 7.378906 C 3.300781 7.378906 3.214844 7.414062 3.152344 7.476562 C 3.089844 7.539062 3.054688 7.621094 3.054688 7.710938 L 3.054688 15.003906 C 3.054688 15.1875 3.203125 15.335938 3.386719 15.335938 L 12.71875 15.339844 C 12.90625 15.339844 13.054688 15.191406 13.054688 15.007812 L 13.058594 7.714844 C 13.058594 7.625 13.023438 7.542969 12.960938 7.480469 C 12.898438 7.417969 12.8125 7.382812 12.722656 7.382812 Z M 12.722656 7.382812 "/>
</g>
</svg>
